<svg xmlns="http://www.w3.org/2000/svg" width="48" height="48"><path d="M0 0h48v48H0z" style="fill:#fdfdfd;fill-opacity:1;stroke:none"/><path d="M18.95 14.906h6.777v.535l-.223.024c-1.113.066-1.113.066-2.04.648-.183.38-.214.688-.21 1.11v.195c-.004.21-.004.426-.004.637v.46q-.005.622-.004 1.243.001.65-.004 1.3c0 .727-.004 1.458-.004 2.184q-.004 1.123-.008 2.246v.836q-.01 2.883-.015 5.766h-4.39v-.469l.171-.023c.41-.063.809-.121 1.207-.243l.211-.054c.18-.067.18-.067.25-.246l.043-.168.063-.133q.006-.282.007-.559v-.18q.002-.294.004-.59v-.421q-.001-.575.004-1.149v-2.964c.004-.868.004-1.73.008-2.598v-2.004q.002-.598.004-1.195c0-.375.004-.75 0-1.13q-.001-.204.004-.41v-.73c-.004-.37-.074-.68-.281-.98-.442-.332-1.047-.38-1.57-.469Zm0 0" style="stroke:none;fill-rule:nonzero;fill:#17304d;fill-opacity:1"/><path d="M24.973 16.578c.105-.004.215-.015.32-.027.43-.04.86-.047 1.293-.047h.57c.137.008.137.008.262.074v.402l-.219.036q-.144.022-.289.047l-.144.023c-.317.055-.547.129-.79.363a3.5 3.5 0 0 0-.163 1.028l-.008.171c-.032.887-.024 1.774-.024 2.657v.789c0 .496 0 .988.004 1.484v1.692c0 1.16 0 2.316.004 3.476.41-.004.816-.012 1.227-.016q.208-.003.418-.007c1.753.02 1.753.02 3.32-.711.41-.461.543-1.063.617-1.672h.879c.02.574-.059 1.11-.152 1.672q-.044.259-.086.523l-.04.23c-.042.305-.07.61-.097.919h-8.031c-.004-3.133-.004-3.133-.004-4.446V22.52q-.005-.99-.004-1.98v-3.036c0-.293.027-.57.07-.86.762-.226.762-.226 1.067-.066" style="stroke:none;fill-rule:nonzero;fill:#f1c132;fill-opacity:1"/><path d="M23.844 30.352h7.968v1.738h-7.968Zm0 0" style="stroke:none;fill-rule:nonzero;fill:#ecc03b;fill-opacity:1"/><path d="M20.078 35.164h1.508l-.191.336c-.032.203-.032.203-.032.426l-.004.219-.007.277-.02.883h2.324l-.023-.922-.008-.29-.008-.226-.004-.234c-.011-.219-.011-.219-.148-.469h1.445l-.125.402c-.02.207-.02.207-.015.426v1.383q.004.375.003.75v1.234l.004.22c.008.187.024.355.07.534l.126.067h-1.508l.129-.403q.018-.229.023-.465l.008-.234.008-.297.023-.941h-2.324l.023.941.008.297.008.234.004.243c.016.258.016.258.148.625h-1.445l.125-.336c.02-.211.02-.211.016-.438l.004-.265-.004-.286.004-.292q.001-.307-.004-.614-.001-.392.004-.785v-.605c-.004-.098 0-.196 0-.293 0-.133 0-.27-.004-.403v-.234c-.004-.219-.004-.219-.14-.465" style="stroke:none;fill-rule:nonzero;fill:#17314d;fill-opacity:1"/><path d="M23.844 25.672h.125q.001.122-.004.25.001.462-.004.926v.402q-.005.287-.004.574l-.004.18c0 .324.031.574.14.875v.137c.169-.012.333-.02.5-.032l.141-.007c.235.007.235.007.426-.098v-.215c0-.21.008-.383.063-.586l.125-.066v-.133l.254-.067.062-.804h.063c.039.433.066.863.062 1.3v.438c.41-.004.816-.012 1.227-.016q.208-.003.418-.007c1.753.02 1.753.02 3.32-.711.41-.461.543-1.063.617-1.672h.879c.02.574-.059 1.11-.152 1.672q-.044.259-.086.523l-.04.23c-.042.305-.07.61-.097.919h-8.031Zm0 0" style="stroke:none;fill-rule:nonzero;fill:#dca01d;fill-opacity:1"/><path d="M30.559 35.164c1.132-.148 1.132-.148 1.515.082.239.215.426.469.602.738.097.145.203.27.312.399l.102.125c.305.375.617.738.933 1.105.801.926.801.926.801 1.094h.125c-.008-.453-.011-.902-.02-1.355q-.003-.231-.007-.461c-.004-.223-.004-.442-.008-.664l-.004-.207-.004-.196-.004-.172c-.011-.18-.011-.18-.14-.422h.879l-.063.133q-.011.237-.016.473v.144q-.004.24-.003.48l-.008.333q-.001.438-.008.875l-.012.89c-.004.587-.011 1.169-.015 1.755l-.332.011-.188.008c-.242-.027-.344-.133-.5-.324l-.098-.13-.101-.132a14 14 0 0 1-.29-.371l-.234-.281-.101-.125c-.172-.211-.352-.422-.531-.633q-.182-.218-.364-.441c-.172-.211-.355-.41-.539-.606-.164-.176-.312-.36-.465-.547q-.07-.087-.148-.176-.005.71-.004 1.414.001.24-.004.48v1.29c.004.18.004.18.07.43h-.816l.125-.336c.02-.192.02-.192.016-.403l.004-.238v-1.078q-.001-.357.004-.715v-1.387a1.04 1.04 0 0 0-.211-.523c-.13-.09-.13-.09-.25-.137Zm0 0" style="stroke:none;fill-rule:nonzero;fill:#1a334f;fill-opacity:1"/><path d="M27.043 35.164h1.316q.295.702.547 1.414c.211.617.446 1.223.68 1.828l.14.371q.105.274.212.547l.062.164.059.157.054.136c.078.168.078.168.317.399H28.8l.063-.137c.004-.395-.093-.715-.261-1.066-.051-.137-.051-.137-.051-.403l-1.883.067c-.23.578-.23.578-.3 1.144l-.016.395h-1.004l.183-.364c.309-.652.547-1.332.797-2.007q.115-.311.23-.618.099-.256.196-.511.072-.181.137-.364l.086-.226.074-.2c.074-.253.105-.484-.008-.726" style="stroke:none;fill-rule:nonzero;fill:#17304c;fill-opacity:1"/><path d="M23.465 8.355h.129q.074.147.156.293l.086.165c.07.144.07.144.07.28h.125l.055.106q.129.257.258.508l.097.184c.215.418.446.832.692 1.23.094.184.144.305.152.512-.07.16-.07.16-.18.328l-.125.195-.132.211q-.14.23-.274.457l-.144.235-.075.12-.312.516q-.072.123-.148.246c-.125.211-.125.211-.239.434-.25-.09-.297-.21-.437-.445l-.133-.22q-.135-.226-.258-.46a5 5 0 0 0-.285-.469c-.145-.215-.145-.215-.145-.347h-.125l-.109-.211a4 4 0 0 0-.39-.59c.109-.332.273-.63.437-.938l.062-.117c.149-.273.293-.547.442-.816h.125l.015-.137c.06-.254.172-.457.297-.68l.137-.25.113-.203Zm0 0" style="stroke:none;fill-rule:nonzero;fill:#f9dc5f;fill-opacity:1"/><path d="M19.2 35.297v1.07l-.313-.332c-.332-.312-.594-.422-1.035-.422l-.211-.004c-.22.028-.336.086-.512.223-.098.207-.082.375-.063.602.23.449.727.586 1.145.777.46.223.965.492 1.191 1a1.77 1.77 0 0 1-.05 1.187c-.23.418-.586.704-1.008.868-.797.175-1.59.09-2.344-.223V38.84c.25.27.25.27.398.472.23.278.43.383.774.426l.242-.004.246.004a.9.9 0 0 0 .535-.23c.157-.246.176-.446.125-.735-.207-.332-.53-.46-.863-.632-1.168-.598-1.168-.598-1.41-1.086a2.06 2.06 0 0 1 0-1.172c.203-.41.539-.64.937-.801a3.38 3.38 0 0 1 2.215.215" style="stroke:none;fill-rule:nonzero;fill:#162f4c;fill-opacity:1"/><path d="M23.465 35.164h1.445l-.125.402c-.02.207-.02.207-.015.426v1.383q.004.375.003.75v1.234l.004.22c.008.187.024.355.07.534l.126.067h-1.508l.129-.403c.015-.226.015-.226.011-.465l-.003-.257v-.274q-.005-.137-.004-.273-.002-.335-.004-.668l-.504-.067.125-.132c.133-.114.133-.114.125-.203l-1.945-.067v-.066h2.261l-.023-.922-.008-.29-.008-.226-.004-.234c-.011-.219-.011-.219-.148-.469" style="stroke:none;fill-rule:nonzero;fill:#17324d;fill-opacity:1"/><path d="M13.805 35.164h1.504l-.125.27c-.02.203-.02.203-.016.43v3.772c.008.235.008.235.14.544h-1.503l.187-.403c.028-.199.028-.199.024-.406v-.238l-.004-.254v-.82q-.005-.352-.004-.707.001-.339-.004-.676v-.254a7 7 0 0 0-.074-1.125h-.125Zm0 0" style="stroke:none;fill-rule:nonzero;fill:#1b334c;fill-opacity:1"/><path d="M23.844 25.672h.125q.001.122-.004.25.001.462-.004.926v.402q-.005.287-.004.574l-.004.18c0 .324.031.574.14.875v.137c.169-.012.333-.02.5-.032l.141-.007c.235.007.235.007.426-.098v-.215c0-.21.008-.383.063-.586l.125-.066v-.133l.254-.067.062-.804h.063c.039.433.066.863.062 1.3v.438c.41-.004.816-.012 1.227-.016q.208-.003.418-.007c1.753.02 1.753.02 3.32-.711.41-.461.543-1.063.617-1.672h.879v.668h-.062v-.602h-.754l.011.196c.02.582-.015.976-.324 1.476h-.312l.062.2-.152.046-.16.09c-.059.168-.059.168-.067.332h-.125v-.133l-.308.063-.176.035c-.14.02-.14.02-.203.102-.117.003-.235.007-.352.003h-.191l-.149-.003v.132l2.133.07v.133h-7.027v.133l.125.067-.125.27h7.656l.063-.74h.125l-.063.806h-8.031Zm0 0" style="stroke:none;fill-rule:nonzero;fill:#d9a226;fill-opacity:1"/><path d="M27.547 36.102c.226.3.344.644.48 1 .028.066.051.136.078.203l.075.195.07.176c.047.164.047.164.047.43l-1.442.066-.062.203-.063-.07-.062.136 1.816.067v.066l-1.816.067c-.23.578-.23.578-.3 1.144l-.016.395h-1.004l.183-.364c.426-.89.746-1.843 1.074-2.78.125.132.125.132.125.401l.125-.199v.133c.125-.031.125-.031.25-.133.086-.175.141-.355.2-.539.172-.527.172-.527.242-.597" style="stroke:none;fill-rule:nonzero;fill:#1b334d;fill-opacity:1"/><path d="M23.465 8.355h.129q.074.147.156.293l.086.165c.07.144.07.144.07.28h.125l.055.11q.134.251.262.508.045.089.097.184c.207.402.418.796.645 1.187.07.148.07.148.07.352h-1.066c.062-.356.125-.672.25-1.004.011-.184.011-.184 0-.336h-.188l-.125-.469-.312.07-.188.934c-.191 0-.191 0-.379-.133v-.2l-.21.134c-.212.133-.212.133-.352.133l-.024.152c-.039.183-.039.183-.113.328l-.055.121.063.133c-.047.16-.047.16-.121.344l-.07.183-.06.14h-.187c-.136-.163-.136-.163-.25-.331.11-.332.274-.63.438-.938l.062-.117c.149-.273.293-.547.442-.816h.125l.015-.137c.06-.254.172-.457.297-.68l.137-.25.113-.203Zm0 0" style="stroke:none;fill-rule:nonzero;fill:#e1ac34;fill-opacity:1"/><path d="M32.188 36.102h.124l.126.199.316-.133c.289.3.566.602.828.93q.122.15.25.289c.355.394.355.394.398.707-.054.343-.054.343-.097.48h-.125v.133c-.535-.027-.824-.305-1.168-.707q-.18-.211-.356-.43a6 6 0 0 0-.297-.34l-.156-.171-.136-.149c-.082-.14-.082-.14-.067-.328l.047-.148.125.132c.164-.203.164-.203.188-.464" style="stroke:none;fill-rule:nonzero;fill:#132d4b;fill-opacity:1"/><path d="M23.844 30.285h8.093c.04.473.07.883.036 1.348l-.012.156-.023.367c-.301.192-.551.23-.895.223h-.156c-.168.004-.336 0-.504 0h-.356c-.25 0-.5-.004-.75-.004-.316 0-.629-.004-.945-.004-1.129 0-2.262-.008-3.395-.039l-.23-.008-.207-.008-.18-.004a1.5 1.5 0 0 1-.476-.156v-.066h7.968v-1.738h-7.968Zm0 0" style="stroke:none;fill-rule:nonzero;fill:#fefded;fill-opacity:1"/><path d="M19.2 35.297v1.07l-.313-.332c-.332-.312-.594-.422-1.035-.422l-.211-.004a.85.85 0 0 0-.512.223c-.086.238-.086.238-.125.469l-.063-.2-.25.133.188.2-.25.203a5 5 0 0 1-.125-.403l.062-.132h-.128v.132h-.188l-.062.133h-.125l-.063.27c-.035-.446.004-.707.25-1.07.746-.817 2.05-.672 2.95-.27" style="stroke:none;fill-rule:nonzero;fill:#1e3651;fill-opacity:1"/><path d="M23.844 25.672h.125q.001.122-.004.25.001.462-.004.926v.402q-.005.287-.004.574l-.004.18c0 .324.031.574.14.875v.137h7.028v.132h-7.027v.133l.125.067-.125.27h7.656l.063-.74h.125l-.063.806h-8.031Zm0 0" style="stroke:none;fill-rule:nonzero;fill:#d4a62d;fill-opacity:1"/><path d="m22.715 42.184.512-.012.16-.008c.285 0 .484.012.707.219.027.215.043.336 0 .535-.125.168-.125.168-.25.27l.113.144c.324.445.324.445.324.656h-.437l-.04-.125c-.1-.332-.1-.332-.34-.547-.151-.039-.151-.039-.374-.062l.004.156v.207l.004.203c-.008.168-.008.168-.07.235h-.313Zm0 0" style="stroke:none;fill-rule:nonzero;fill:#5f6a74;fill-opacity:1"/><path d="M24.973 42.184c.437 0 .437 0 .59.125l.132.171.14.184.142.188.132.18q.159.21.305.421l.063-1.27h.316v1.872c-.379 0-.379 0-.531-.153l-.145-.199-.144-.195a3 3 0 0 1-.246-.453h-.125l-.254-.336-.063 1.336h-.312Zm0 0" style="stroke:none;fill-rule:nonzero;fill:#4f5a66;fill-opacity:1"/><path d="M30.305 42.117h.316v1.871c-.379 0-.379 0-.523-.125l-.133-.175-.145-.184-.14-.184c-.086-.101-.172-.207-.258-.308q-.089-.111-.184-.227l-.062 1.203-.313.067v-1.871c.438 0 .438 0 .594.144l.133.195.133.188.144.207.375.469Zm0 0" style="stroke:none;fill-rule:nonzero;fill:#465160;fill-opacity:1"/><path d="M20.895 42.184h.375l.433.925.14.293.071.141.063.129c.046.117.046.117.046.316h-.375l-.125-.468h-.941l-.129.468h-.375c.23-.629.512-1.215.817-1.804" style="stroke:none;fill-rule:nonzero;fill:#5d6776;fill-opacity:1"/><path d="M25.348 16.223c.148.027.289.027.441.023h.25l.063.067q.134.018.273.03l.168.016q.17.016.348.032l.168.015.156.012c.148.027.262.082.394.16v.402h-.191v-.402c-1.156-.015-1.156-.015-2.313.059-.132.008-.132.008-.257-.059a5.5 5.5 0 0 0-.942.067l-.062 13.039h-.063q-.007-2.56-.008-5.122 0-1.185-.003-2.375v-2.07c0-.367 0-.73-.004-1.097V16.94c0-.347 0-.347.14-.496q.234-.08.473-.144l.14-.04c.29-.07.532-.1.829-.038" style="stroke:none;fill-rule:nonzero;fill:#fefbd7;fill-opacity:1"/><path d="M27.547 36.102c.226.3.344.644.48 1 .028.066.051.136.078.203l.075.195.07.176c.047.164.047.164.047.43h-1.442c.211-.754.211-.754.301-1.008.02-.055.035-.11.055-.168l.059-.164.058-.172c.145-.418.145-.418.219-.492" style="stroke:none;fill-rule:nonzero;fill:#edf2f4;fill-opacity:1"/><path d="M33.066 42.25v.203l-.18-.012-.476-.015c-.262.031-.36.09-.535.293-.078.199-.09.386-.062.601.136.203.136.203.312.336l.063.067q.156.023.32.035l.172.02.136.011-.062-.469-.188-.066v-.133h.563v.867c-.32.172-.824.117-1.164.024a1.13 1.13 0 0 1-.594-.625 1.4 1.4 0 0 1 .094-.825c.418-.476 1.043-.628 1.601-.312" style="stroke:none;fill-rule:nonzero;fill:#485564;fill-opacity:1"/><path d="M18.195 42.184h1.32v.199h-.94v.535h.812v.27h-.813v.601h1.004l-.062.266h-1.32Zm0 0" style="stroke:none;fill-rule:nonzero;fill:#505a67;fill-opacity:1"/><path d="M23.844 30.285h8.093c.063.735.063.735 0 1.871h-8.093v-.066h7.968v-1.738h-7.968Zm0 0" style="stroke:none;fill-rule:nonzero;fill:#f3dfa5;fill-opacity:1"/><path d="M31.434 26.406h.753c.04.844-.105 1.645-.25 2.473h-.125c-.093-.195-.066-.383-.062-.602h-.125l-.043-.41c-.012-.125-.012-.125-.086-.191a7 7 0 0 1-.02-.285l-.007-.172-.008-.18-.008-.184a17 17 0 0 0-.02-.449" style="stroke:none;fill-rule:nonzero;fill:#d39b1f;fill-opacity:1"/><path d="m22.023 10.695.188.067-.086.152-.219.399c-.09.175-.09.175-.031.328l.086.125.082.12q.082.118.168.235c.062.113.062.113.062.313h.125q.146.193.274.398l.074.121q.253.399.465.824c.172.352.172.352.445.598l.047-.145a4 4 0 0 1 .297-.574l.117-.195c.102-.156.102-.156.227-.223v.399h.125l.066.27-.441.066.004.254c.004.191-.008.296-.067.48l-.23-.035a1.35 1.35 0 0 0-.586.035c-.25-1.07-.25-1.07-.277-1.215l-.036-.12-.156-.06-.156-.074a7 7 0 0 1-.063-.402l-.12-.063c-.208-.109-.231-.316-.321-.539q-.125-.069-.25-.132c-.074-.2-.074-.2-.125-.403l-.063-.199c.079-.242.079-.242.188-.469l.187-.066Zm0 0" style="stroke:none;fill-rule:nonzero;fill:#fdf8c5;fill-opacity:1"/><path d="m23.719 12.168.5.066v.133l.187.067c.09.191.082.324.063.535-.086.191-.086.191-.207.375l-.117.187-.114.172-.101.156-.086.114h-.125c-.137-.215-.145-.274-.145-.52v-.187l.004-.196-.004-.195v-.36c.02-.148.02-.148.145-.347" style="stroke:none;fill-rule:nonzero;fill:#e8a71c;fill-opacity:1"/><path d="M31.371 26.34h.879v.668h-.062v-.602h-.754l.011.196c.02.582-.015.976-.324 1.476h-.312l.062.2-.152.046-.16.09c-.059.168-.059.168-.067.332h-.125v-.133l-.308.063-.176.035c-.14.02-.14.02-.203.102-.09.011-.184.015-.274.019l-.168.008-.175.008q-.17.005-.344.015l-.153.004a2.3 2.3 0 0 0-.394.078c-.129.008-.262.008-.39.008l-.208-.004-.156-.004v-.066l-1.629-.067v-.066h.106c.375-.004.75-.012 1.12-.016q.21-.003.419-.007c1.753.02 1.753.02 3.32-.711.41-.461.543-1.063.617-1.672" style="stroke:none;fill-rule:nonzero;fill:#e1b652;fill-opacity:1"/><path d="M24.406 16.512c.426-.008.426-.008.567.066.105-.004.215-.015.32-.027.43-.04.86-.047 1.293-.047h.57c.137.008.137.008.262.074v.402l-.223.043-.293.055-.148.027-.145.024-.129.027c-.128.024-.253.059-.378.09v-.2l.503-.066v-.132q-.17-.005-.34-.004l-.187-.004c-.164-.004-.164-.004-.289.074q-.22.01-.441.008h-.239c-.199-.008-.199-.008-.324-.074l-.062-.203-.317-.067Zm0 0" style="stroke:none;fill-rule:nonzero;fill:#f3c44d;fill-opacity:1"/><path d="m25.16 11.297.125.066c-.027.352-.148.57-.34.844-.23.332-.23.332-.41.695h-.066l-.055-.23-.07-.238-.125-.067v-.133c-.25-.011-.25-.011-.5 0l-.125.133v-.469c.246.04.46.094.687.204l.188-.336h-.125c.117-.258.117-.258.191-.332q.159-.01.317-.008l.175.004.133.004Zm0 0" style="stroke:none;fill-rule:nonzero;fill:#f5cd4c;fill-opacity:1"/><path d="M21.27 37.371h2.449v.066l-.317.067c.051.207.051.207.192.336q-.44.001-.875.008h-.297c-.145.004-.285.004-.43.004l-.133.003c-.234 0-.328-.011-.527-.152Zm0 0" style="stroke:none;fill-rule:nonzero;fill:#122a45;fill-opacity:1"/><path d="m24.094 9.559.05.23.075.238.187.067c.016.265-.027.43-.125.668-.066.222-.125.445-.187.672h-.188l-.023-.23-.04-.24-.124-.066c-.16-.347-.23-.652-.117-1.023.05-.14.05-.14.117-.25a.8.8 0 0 1 .375-.066" style="stroke:none;fill-rule:nonzero;fill:#f7d054;fill-opacity:1"/><path d="M16.25 42.117h.379v1.672h.879v.2H16.25Zm0 0" style="stroke:none;fill-rule:nonzero;fill:#5d6a77;fill-opacity:1"/><path d="M24.281 14.906h1.446v.535l-.235.028-.308.035-.153.02q-.409.045-.812.12Zm0 0" style="stroke:none;fill-rule:nonzero;fill:#856572;fill-opacity:1"/><path d="M24.406 10.094c.344.308.559.715.754 1.136v.204h-1.066c.078-.457.18-.899.312-1.34" style="stroke:none;fill-rule:nonzero;fill:#e8af3a;fill-opacity:1"/><path d="M30.516 30.336q.089-.001.18.004h.179l.223.004.715.008v1.738h-1.004v-.067h.687v-1.136l-.187-.067v-.336h-1.067c.125-.132.125-.132.274-.148" style="stroke:none;fill-rule:nonzero;fill:#d29e2d;fill-opacity:1"/><path d="M26.605 17.18h-.128l-.063.203c-.102.043-.207.09-.312.133-.274.437-.207 1.05-.223 1.558l-.004.137c-.04 1.41-.047 2.824-.059 4.234q-.003.558-.007 1.117-.013 1.09-.02 2.18h-.062q-.005-1.43-.004-2.86v-1.327q-.005-.646-.004-1.285v-.489c0-.758 0-1.52.031-2.277l.004-.16c.039-.774.039-.774.316-1.055.22-.152.285-.187.535-.11" style="stroke:none;fill-rule:nonzero;fill:#fdf1bb;fill-opacity:1"/><path d="M22.777 12.703h.125v.133h.313l.062.266h.125l.063-.332h.129l.011.21.016.278.008.14c.012.204.027.38.09.575l.125.066-.188.336c-.351-.125-.511-.543-.691-.871a2 2 0 0 1-.125-.469l-.04-.195Zm0 0" style="stroke:none;fill-rule:nonzero;fill:#fad63d;fill-opacity:1"/><path d="M31.059 35.7h.062l.063 1.07.25.066V36.5h.062v3.145h-.062l-.004-.243c-.004-.101-.012-.207-.016-.308l-.004-.16-.004-.153-.008-.14c-.023-.168-.023-.168-.214-.403l-.063 1.672h-.062Zm0 0" style="stroke:none;fill-rule:nonzero;fill:#152e49;fill-opacity:1"/><path d="M34.762 35.23h.879l-.063.133q-.011.237-.016.473v.144q-.004.24-.003.48l-.008.333q-.001.438-.008.875l-.012.89c-.004.587-.011 1.169-.015 1.755h-.067v-.176c-.008-.551-.011-1.098-.02-1.645l-.011-.844q-.001-.41-.008-.816c0-.105-.004-.207-.004-.312 0-.145-.004-.29-.004-.434l-.004-.25c0-.207 0-.207-.074-.402-.14.054-.14.054-.191.23-.07.29-.082.563-.086.86l-.004.18q-.001.275-.008.558l-.008.383q-.008.461-.015.93h-.063v-.118c-.008-.395-.011-.789-.02-1.184q-.003-.217-.007-.441c-.004-.21-.004-.422-.008-.633l-.004-.203-.004-.184-.004-.164c-.011-.175-.011-.175-.14-.418" style="stroke:none;fill-rule:nonzero;fill:#45576a;fill-opacity:1"/><path d="m20.453 43.055.254.066v.2c.05-.008.098-.012.148-.02.715-.078.715-.078.98.086.13.215.188.343.188.601h-.375l-.125-.468h-.941l-.129.468h-.375l.238-.613q.066-.164.137-.32" style="stroke:none;fill-rule:nonzero;fill:#4d5968;fill-opacity:1"/><path d="M22.715 42.184h.879v.066l-.504.066-.063.739.63-.07c-.192.203-.192.203-.423.214l-.207-.011v.867h-.312Zm0 0" style="stroke:none;fill-rule:nonzero;fill:#3f4a58;fill-opacity:1"/><path d="m23.402 8.559.13.066c.034.176.042.352.062.535l.187-.203c.059.176.07.246.004.418l-.066.117-.188-.066.02.222-.02.247c-.16.128-.16.128-.316.199l-.09-.098c-.082-.11-.082-.11-.16-.101-.07-.547.164-.891.437-1.336" style="stroke:none;fill-rule:nonzero;fill:#d99c1f;fill-opacity:1"/><path d="M30.305 42.117h.316v1.871c-.379 0-.379 0-.496-.12-.07-.145-.07-.145-.07-.348h.125c.074-.153.074-.254.082-.422l.008-.172.007-.184.008-.18q.013-.222.02-.445" style="stroke:none;fill-rule:nonzero;fill:#485663;fill-opacity:1"/><path d="M23.844 30.352h2.258v.066c-.856.07-.856.07-1.176.066-.196-.015-.196-.015-.328.067v-.133l-.149.035c-.168.031-.168.031-.355.031l.035.141c.031.223.004.379-.035.594q-.016.138-.032.277c-.03.258-.03.258-.093.527h1.129v.067h-1.254Zm0 0" style="stroke:none;fill-rule:nonzero;fill:#cda538;fill-opacity:1"/><path d="M18.195 42.184h.125l.063 1.07h.062l.13.535h1.003l-.062.266h-1.32Zm0 0" style="stroke:none;fill-rule:nonzero;fill:#5a6671;fill-opacity:1"/><path d="M18.95 14.906h1.757v.07l-.117.008-.156.012-.153.012c-.164.039-.222.097-.328.234h.125v.266c-.39.02-.75-.051-1.129-.133Zm0 0" style="stroke:none;fill-rule:nonzero;fill:#17233a;fill-opacity:1"/><path d="M24.973 42.184h.437l.13.199-.126.027-.129.043-.062.133.125.066-.063 1.403h-.312Zm0 0" style="stroke:none;fill-rule:nonzero;fill:#6c7583;fill-opacity:1"/><path d="M23.656 35.633h.063l.004.144.023.66.008.231c.012.371.031.734.09 1.105l.125-.07-.063.602-.125-.067-.062 1.34h-.063l-.062-1.738-.504-.067.125-.132c.133-.114.133-.114.125-.203l-1.945-.067v-.066h2.261Zm0 0" style="stroke:none;fill-rule:nonzero;fill:#40546b;fill-opacity:1"/><path d="M25.977 38.707c.125.2.125.2.109.352l-.078.328-.031.12.375-.066v.739h-1.004l.21-.438c.16-.336.305-.676.419-1.035" style="stroke:none;fill-rule:nonzero;fill:#1d3350;fill-opacity:1"/><path d="M23.465 8.355h.129q.074.147.156.293l.086.165c.07.144.07.144.07.28h.125q.146.26.285.524l.086.153.078.144.07.133.048.113-.063.137-.066-.203h-.313l-.125-.469-.312.07-.125.465h-.063v-.734h.188l.062-.403-.25.204-.011-.13-.032-.327c-.015-.149-.015-.149-.086-.278Zm0 0" style="stroke:none;fill-rule:nonzero;fill:#e7be41;fill-opacity:1"/><path d="M27.672 42.184h.312v1.804h-.312Zm0 0" style="stroke:none;fill-rule:nonzero;fill:#3b4654;fill-opacity:1"/><path d="M23.656 12.5h.313l.054.133c.059.144.059.144.196.203a4 4 0 0 1-.125.535c-.13.047-.13.047-.25.066v.536h-.125c-.164-.258-.145-.473-.137-.774v-.156c0-.39 0-.39.074-.543" style="stroke:none;fill-rule:nonzero;fill:#dfa006;fill-opacity:1"/><path d="M26.477 42.184h.316v1.87h-.379v-.066h.316l-.125-.086-.128-.113v-.203l-.188-.066.125-.067Zm0 0" style="stroke:none;fill-rule:nonzero;fill:#65717d;fill-opacity:1"/><path d="M31.371 26.34h.879v.668h-.062v-.602h-.754l.011.196c.02.582-.015.976-.324 1.476h-.312l.062.2-.152.046-.16.09c-.059.168-.059.168-.067.332h-.125v-.133l-.187-.066h.187l.043-.113c.082-.157.082-.157.227-.297.46-.516.668-1.098.734-1.797" style="stroke:none;fill-rule:nonzero;fill:#d3a941;fill-opacity:1"/><path d="m23.531 8.09.063.133.12.05c.13.082.13.082.208.27.043.195.058.352.047.55-.375-.515-.375-.515-.375-.738h-.13l-.038.16c-.094.274-.227.5-.371.747-.09.164-.153.324-.215.5h-.125l-.043.164a4 4 0 0 1-.399.77l-.125-.266.145-.137c.191-.223.262-.39.36-.668h.124l.063-.398h.125l.058-.165c.067-.171.067-.171.13-.238q.035-.152.066-.304l.035-.168.023-.13h.254Zm0 0" style="stroke:none;fill-rule:nonzero;fill:#fcf5d1;fill-opacity:1"/><path d="M32.313 25.672h.19v.332l-.066.07v.305a6 6 0 0 1-.062.898h-.125l-.125.266.125-1.203h-.816v-.2l.816-.136Zm0 0" style="stroke:none;fill-rule:nonzero;fill:#fdf7df;fill-opacity:1"/><path d="M25.79 26.742h.062l.062 1.871h3.324v.067c-.383.07-.754.074-1.14.074h-.2q-.315-.002-.632-.004h-.43c-.348 0-.7-.004-1.047-.004Zm0 0" style="stroke:none;fill-rule:nonzero;fill:#fef5d1;fill-opacity:1"/><path d="M26.477 16.512q.204-.002.402-.004h.223c.191.004.191.004.316.07v.402l-.223.043-.293.055-.148.027-.145.024-.129.027c-.128.024-.253.059-.378.09v-.2l.503-.132.063-.27Zm0 0" style="stroke:none;fill-rule:nonzero;fill:#efc760;fill-opacity:1"/><path d="m23.027 9.828.188.2.316-.133v.734c-.191 0-.191 0-.379-.133v-.2l-.21.134c-.212.133-.212.133-.352.133l-.063.335c-.058-.175-.074-.246-.004-.418l.067-.117h.125v-.336l.125-.066.125.066Zm0 0" style="stroke:none;fill-rule:nonzero;fill:#edb22e;fill-opacity:1"/><path d="m24.723 16.578.023.129.04.14.124.067-.441.066v.133c-.188.067-.188.067-.438 0l-.062 1.07h-.063c-.031-1.042-.031-1.042.125-1.468.215-.168.43-.149.692-.137" style="stroke:none;fill-rule:nonzero;fill:#edaa38;fill-opacity:1"/><path d="M23.09 42.383c.46-.024.46-.024.633.082.082.172.047.273-.004.453-.063.066-.063.066-.196.074l-.433-.008Zm0 0" style="stroke:none;fill-rule:nonzero;fill:#f0f5f8;fill-opacity:1"/><path d="M23.152 13.371h.38l.034.129.051.168.047.168c.043.148.043.148.18.203l-.188.336c-.261-.094-.312-.215-.441-.469a4 4 0 0 1-.063-.535" style="stroke:none;fill-rule:nonzero;fill:#f3cf2d;fill-opacity:1"/><path d="M18.445 39.645c.067.199.067.199.067.468-.192.133-.266.153-.485.172l-.152.016-.117.011v-.132h.312v-.137c-.285-.145-.566-.172-.879-.2v-.066l.11-.004c.16-.007.324-.015.484-.027l.168-.008.164-.008.153-.007c.117 0 .117 0 .175-.078" style="stroke:none;fill-rule:nonzero;fill:#142f4d;fill-opacity:1"/><path d="M31.563 36.5c.328.277.574.57.812.938l-.137-.04a1 1 0 0 0-.488.04c-.176-.211-.21-.34-.2-.618l.005-.183Zm0 0" style="stroke:none;fill-rule:nonzero;fill:#f0f7f9;fill-opacity:1"/><path d="m26.266 16.809.191.02.148.019v.132c-.171.09-.316.07-.503.067l-.016.152c-.055.215-.14.305-.297.45a2.1 2.1 0 0 1 .063-.602l-.817.066v-.199l.16-.012.207-.02a4 4 0 0 0 .207-.015c.575-.066.575-.066.657-.058" style="stroke:none;fill-rule:nonzero;fill:#f0b73b;fill-opacity:1"/><path d="M20.645 43.254q.188-.007.382-.008l.215-.004c.223.012.39.051.594.145.129.215.187.343.187.601h-.375c-.082-.195-.125-.32-.125-.535l-.164.004h-.207l-.207.004c-.175-.008-.175-.008-.3-.074Zm0 0" style="stroke:none;fill-rule:nonzero;fill:#585f73;fill-opacity:1"/><path d="m23.277 10.363.063.2.125-.067.066.2c-.25.07-.441.058-.691 0l-.25.534-.254-.066c.11-.316.2-.55.437-.777.207-.102.293-.106.504-.024" style="stroke:none;fill-rule:nonzero;fill:#f2bd3e;fill-opacity:1"/><path d="M32.566 43.121h.563v.8a1.05 1.05 0 0 1-.45.071l-.242-.004c.239-.199.239-.199.38-.199l-.063-.469-.188-.066Zm0 0" style="stroke:none;fill-rule:nonzero;fill:#3d4b5b;fill-opacity:1"/><path d="M27.105 36.102c.125.199.125.199.11.336l-.11.398.125-.066c-.007.222-.007.222-.062.468-.184.125-.184.125-.375.2l-.125.066c-.016-.223-.016-.223 0-.469q.122-.105.25-.2c.078-.23.078-.23.125-.468l.039-.164Zm0 0" style="stroke:none;fill-rule:nonzero;fill:#15314c;fill-opacity:1"/><path d="m28.723 28.809.152.003h.113l-.062.204h-2.512c.215-.157.29-.153.543-.145h.207l.219.004q.214.004.43.008l.19.004c.247-.008.47-.082.72-.078" style="stroke:none;fill-rule:nonzero;fill:#e6a822;fill-opacity:1"/><path d="M29.555 42.652c.52.457.52.457.625.668-.024.14-.024.14-.063.266l.063.137a1.3 1.3 0 0 1-.485-.395l-.117-.137c-.09-.136-.09-.136-.09-.406Zm0 0" style="stroke:none;fill-rule:nonzero;fill:#444e5c;fill-opacity:1"/><path d="M26.102 30.352q.52-.007 1.046-.008.177.001.352-.004h.516l.156-.004c.336 0 .621.05.941.148v.133h-.5v-.133h-.136c-1.645.012-1.645.012-2.375-.066Zm0 0" style="stroke:none;fill-rule:nonzero;fill:#ecd253;fill-opacity:1"/><path d="m19.516 31.621.187.133v.203h.313v.133h-1.192v-.403h.563c-.188.133-.188.133-.325.11l-.113-.043v.133l.567-.067Zm0 0" style="stroke:none;fill-rule:nonzero;fill:#0e1d34;fill-opacity:1"/><path d="M23.969 14.906h.312v.672l-.625.332c.063-.265.063-.265.157-.351.152-.192.136-.403.156-.653" style="stroke:none;fill-rule:nonzero;fill:#3b4e69;fill-opacity:1"/><path d="m24.535 11.5-.191.266h.125c-.051.164-.051.164-.125.336l-.188.066q-.158-.099-.312-.203c-.137-.043-.137-.043-.25-.067v-.132h.5V11.5c.297-.078.297-.078.441 0" style="stroke:none;fill-rule:nonzero;fill:#fadd63;fill-opacity:1"/><path d="M23.531 43.188c.375.066.375.066.492.199l.094.164.098.16c.066.144.066.144.066.277h-.437Zm0 0" style="stroke:none;fill-rule:nonzero;fill:#4c5664;fill-opacity:1"/><path d="m18.512 35.164.562.066v.47l-.25.066-.062-.2-.442-.066.063-.203h.129Zm0 0" style="stroke:none;fill-rule:nonzero;fill:#162f48;fill-opacity:1"/><path d="m21.078 42.168.192.016c.136.214.14.27.132.515v.164l-.007.121-.188-.066c-.074-.203-.074-.203-.125-.398h-.125l-.062.132q-.038-.197-.063-.402c.063-.066.063-.066.246-.082" style="stroke:none;fill-rule:nonzero;fill:#495361;fill-opacity:1"/><path d="M25.035 42.316h.125c.074.559.07 1.11.063 1.672h-.188Zm0 0" style="stroke:none;fill-rule:nonzero;fill:#475463;fill-opacity:1"/><path d="M16.25 42.184h.316v1.27h-.062l-.067-.669-.125.469h-.062Zm0 0" style="stroke:none;fill-rule:nonzero;fill:#384956;fill-opacity:1"/><path d="M24.406 16.512c.426-.008.426-.008.567.066.12.004.12.004.257-.008l.157-.008.32-.023q.198-.011.395-.027l-.188.066-.062.203c-.258.102-.547.098-.817.067-.172-.098-.172-.098-.312-.203-.172-.047-.172-.047-.317-.067Zm0 0" style="stroke:none;fill-rule:nonzero;fill:#f9d866;fill-opacity:1"/><path d="M24.785 10.695c.164.168.293.309.375.535v.204h-.437a1.33 1.33 0 0 1-.125-.672Zm0 0" style="stroke:none;fill-rule:nonzero;fill:#d4880f;fill-opacity:1"/><path d="M23.656 15.508c.137.023.137.023.25.07l-.187.133q-.1.167-.188.332-.124.171-.254.336l-.187-.133c-.027-.164-.027-.164 0-.336.129-.133.195-.2.375-.2l.09-.105z" style="stroke:none;fill-rule:nonzero;fill:#204062;fill-opacity:1"/><path d="m24.129 30.414.152.004-.187.066.035.141c.031.223.004.379-.035.594-.008.093-.02.183-.028.277a1.4 1.4 0 0 1-.16.527q-.005-.385-.004-.765l-.004-.223v-.402c.012-.215.028-.215.23-.219" style="stroke:none;fill-rule:nonzero;fill:#d99c1b;fill-opacity:1"/><path d="m22.59 11.434.25.132a3 3 0 0 1-.313.668c-.14.055-.14.055-.254.067l-.187-.266.187-.27.254.067Zm0 0" style="stroke:none;fill-rule:nonzero;fill:#f1c63b;fill-opacity:1"/><path d="m22.023 10.695.188.067-.086.152-.219.399c-.09.18-.09.18-.027.332l.082.12q.1.166.187.337l-.062.132c-.117-.043-.117-.043-.25-.132-.074-.2-.074-.2-.125-.403l-.063-.199c.079-.242.079-.242.188-.469l.187-.066Zm0 0" style="stroke:none;fill-rule:nonzero;fill:#fef6d9;fill-opacity:1"/><path d="m26.04 43.254.312.133v.133l.125.066c.074.14.074.14.128.27l.063-.536h.062v.668c-.316 0-.316 0-.445-.11l-.113-.144-.117-.144-.078-.137Zm0 0" style="stroke:none;fill-rule:nonzero;fill:#454e5b;fill-opacity:1"/><path d="M34.887 35.5h.062v3.207h-.125l-.125-.266.125-.066Zm0 0" style="stroke:none;fill-rule:nonzero;fill:#dbe9f7;fill-opacity:1"/><path d="M21.02 42.586c.214.176.25.394.312.668h-.562c.062-.254.113-.45.25-.668" style="stroke:none;fill-rule:nonzero;fill:#e8f0f3;fill-opacity:1"/><path d="M19.137 37.906c.215.153.242.211.312.469.016.191.016.191.008.387v.199l-.008.148c-.066-.125-.066-.125-.125-.27l.063-.132h-.125l-.063.133v-.133l-.125-.066.031-.18c.028-.191.036-.363.032-.555" style="stroke:none;fill-rule:nonzero;fill:#253b51;fill-opacity:1"/><path d="M21.207 35.23h.25l-.027.11c-.04.191-.047.37-.055.566l-.008.235-.008.242-.007.25q-.007.3-.02.605h-.125l.004-.117a5 5 0 0 0-.066-.887l.062-.066q.023-.134.035-.273l.028-.262h-.125V35.5h.125v-.137l-.125-.066Zm0 0" style="stroke:none;fill-rule:nonzero;fill:#15293f;fill-opacity:1"/><path d="M24.598 16.445h2.007v.067q-.284.036-.57.066c-.055.008-.105.016-.16.02-.453.054-.848.093-1.277-.086Zm0 0" style="stroke:none;fill-rule:nonzero;fill:#fdf49a;fill-opacity:1"/><path d="m31.938 43.586.105.066c.164.078.312.106.492.137.223.035.399.082.594.2-.188.1-.356.077-.563.077l-.242.004c-.199-.015-.199-.015-.324-.148l.063-.2h-.126Zm0 0" style="stroke:none;fill-rule:nonzero;fill:#67717e;fill-opacity:1"/><path d="M30.305 42.117h.316l-.254.067c0 .234 0 .464-.004.699v.57c-.008.133-.008.133.067.203-.016.11-.04.223-.063.332-.12-.047-.12-.047-.25-.133-.047-.175-.047-.175-.062-.335h.125c.074-.153.074-.254.082-.422l.008-.172.007-.184.008-.18q.013-.222.02-.445" style="stroke:none;fill-rule:nonzero;fill:#747f8c;fill-opacity:1"/><path d="M25.098 11.098h.187c.164.261.145.496.125.8l-.125.204h-.25v.199h-.125a2.2 2.2 0 0 1 .23-.5c.098-.164.098-.164.067-.344-.035-.121-.07-.238-.11-.36" style="stroke:none;fill-rule:nonzero;fill:#fbf8d7;fill-opacity:1"/><path d="M22.902 9.426h.063v.601h-.188l-.062.336h-.125l-.063.2h-.129v.132l-.125-.066.442-.867h.125Zm0 0" style="stroke:none;fill-rule:nonzero;fill:#ddb152;fill-opacity:1"/><path d="M26.918 38.172h1.254l.062.133c-.191.14-.23.152-.449.144l-.238-.008-.067-.136h-.562Zm0 0" style="stroke:none;fill-rule:nonzero;fill:#192f4e;fill-opacity:1"/><path d="m25.16 11.297.125.066c-.031.32-.105.508-.285.762l-.121.176-.094.133-.062-.2h.125l-.008-.125-.004-.164-.008-.16c.02-.152.02-.152.106-.273.101-.078.101-.078.226-.078Zm0 0" style="stroke:none;fill-rule:nonzero;fill:#e1bf49;fill-opacity:1"/><path d="m23.719 12.168.5.066v.133l.187.067c.09.187.078.328.063.535-.094.16-.094.16-.188.27.035-.188.07-.36.125-.536l-.148-.015-.164-.051c-.082-.172-.082-.172-.125-.336h-.313Zm0 0" style="stroke:none;fill-rule:nonzero;fill:#eab531;fill-opacity:1"/><path d="m30.367 42.184.192.066h-.13l.063.102c.09.234.078.464.074.718l-.003.149q-.002.187-.004.367h-.192Zm0 0" style="stroke:none;fill-rule:nonzero;fill:#3d4c5c;fill-opacity:1"/><path d="M17.633 38.04q.134.045.273.097l.153.05c.136.051.136.051.261.118v.136l.254.067-.254.265-.129-.148c-.183-.203-.39-.32-.62-.453Zm0 0" style="stroke:none;fill-rule:nonzero;fill:#20364f;fill-opacity:1"/><path d="M25.664 14.906h.063v.535h-.504v-.066h.441v-.133l-.11.035c-.152.036-.284.04-.44.036h-.153l-.113-.004.25-.067v-.133c.187-.097.359-.07.566-.066Zm0 0" style="stroke:none;fill-rule:nonzero;fill:#a17c89;fill-opacity:1"/><path d="m29.992 39.508.567.137v.468l-.13.067c-.261-.196-.359-.34-.437-.672" style="stroke:none;fill-rule:nonzero;fill:#edf2f4;fill-opacity:1"/><path d="M18.133 38.508c.125.097.125.097.25.265.047.336.047.336 0 .536-.156.199-.156.199-.313.336l.125-.47h-.125Zm0 0" style="stroke:none;fill-rule:nonzero;fill:#ebf4f5;fill-opacity:1"/><path d="M32.063 36.969c.347-.024.347-.024.496.101l.07.098-.063.203.25.266-.125.136a20 20 0 0 0-.28-.289l-.157-.164c-.129-.152-.129-.152-.191-.351" style="stroke:none;fill-rule:nonzero;fill:#20354e;fill-opacity:1"/><path d="M23.906 28.547h.125c.133.508.133.508.063.734l.125.067-.125.27h-.188Zm0 0" style="stroke:none;fill-rule:nonzero;fill:#d49518;fill-opacity:1"/><path d="M24.281 14.906h.63c-.298.328-.298.328-.442.403-.04.136-.04.136-.063.27h-.187Zm0 0" style="stroke:none;fill-rule:nonzero;fill:#6c5e6e;fill-opacity:1"/><path d="m28.234 34.832.188.066-.063.266h-1.316c.258-.137.457-.16.738-.176l.133-.008c.106-.003.215-.011.32-.015Zm0 0" style="stroke:none;fill-rule:nonzero;fill:#d3dee6;fill-opacity:1"/><path d="M23.465 8.355h.129c.062.122.129.243.191.36l.106.203.078.176-.063.133-.187-.204-.188.204-.011-.13-.032-.327c-.015-.149-.015-.149-.086-.278Zm0 0" style="stroke:none;fill-rule:nonzero;fill:#dfaf4d;fill-opacity:1"/><path d="M23.656 12.5h.313l.011.328.008.184-.02.156-.187.137-.058-.223c-.043-.148-.086-.3-.13-.445Zm0 0" style="stroke:none;fill-rule:nonzero;fill:#dc9811;fill-opacity:1"/><path d="M23.531 10.898h.125l.032.11.05.148.047.145c.055.152.055.152.246.265-.297.075-.297.075-.437 0l-.063.133-.066-.066a6 6 0 0 1 .031-.371l.016-.207Zm0 0" style="stroke:none;fill-rule:nonzero;fill:#fef387;fill-opacity:1"/><path d="M21.395 42.52c.199.242.28.5.378.8l-.125.067c-.164-.082-.164-.082-.316-.2l-.062-.203h.125l-.063-.199c.027-.144.027-.144.063-.265" style="stroke:none;fill-rule:nonzero;fill:#4b566a;fill-opacity:1"/><path d="M27.043 35.832c.07.113.07.113.125.27-.047.148-.047.148-.125.332-.047.18-.086.355-.125.535l-.25.066c.11-.406.23-.805.375-1.203" style="stroke:none;fill-rule:nonzero;fill:#21374c;fill-opacity:1"/><path d="M22.965 9.625h.566c-.011.16-.011.16-.066.336-.16.086-.16.086-.313.133-.125-.2-.125-.2-.187-.469" style="stroke:none;fill-rule:nonzero;fill:#e8a118;fill-opacity:1"/><path d="m29.426 42.52.191.066c0 .2 0 .2-.094.312l-.097.086-.188-.199-.062 1.203h-.063v-1.336h.313Zm0 0" style="stroke:none;fill-rule:nonzero;fill:#747e88;fill-opacity:1"/><path d="m30.996 27.676.063.137c-.059.14-.059.14-.125.265h-.125l.062.2-.152.046-.16.09c-.059.168-.059.168-.067.332h-.125v-.133l-.187-.066h.187l.043-.113c.106-.2.246-.332.399-.489.062-.09.125-.175.187-.27" style="stroke:none;fill-rule:nonzero;fill:#d4a43a;fill-opacity:1"/><path d="M25.664 20.258v1.402h-.062l-.063-.535h-.066v-.8c.129-.067.129-.067.191-.067" style="stroke:none;fill-rule:nonzero;fill:#fdcc37;fill-opacity:1"/><path d="M26.477 16.512q.204-.002.402-.004h.223c.191.004.191.004.316.07v.402h-.313v-.132h.125v-.203l-.117.007-.304.008c-.141-.015-.141-.015-.332-.148" style="stroke:none;fill-rule:nonzero;fill:#eed087;fill-opacity:1"/><path d="M24.848 12.3c.078.165.066.286.062.47l-.187.066c-.078.234-.078.234-.125.469l-.254-.067a3 3 0 0 1 .324-.656l.102-.16Zm0 0" style="stroke:none;fill-rule:nonzero;fill:#fdf4cc;fill-opacity:1"/><path d="M22.21 10.695h.063c.016.184.016.184 0 .403q-.122.136-.25.265c-.035.258.028.438.125.672-.156-.152-.156-.152-.312-.336 0-.277.035-.375.152-.613l.086-.18c.074-.144.074-.144.137-.21" style="stroke:none;fill-rule:nonzero;fill:#cda845;fill-opacity:1"/><path d="m22.84 43.254.125.066c.027.168.027.168.039.371l.016.207.007.157h-.312a7 7 0 0 1-.008-.29l-.004-.16c.012-.152.012-.152.137-.351" style="stroke:none;fill-rule:nonzero;fill:#4b5563;fill-opacity:1"/><path d="M23.969 13.973c.125.195.125.273.101.52l-.039.214-.566-.066v-.133l.113-.004c.227-.102.281-.3.39-.531" style="stroke:none;fill-rule:nonzero;fill:#fcfadf;fill-opacity:1"/><path d="M26.477 42.184h.253v1.07c-.226-.242-.218-.32-.23-.649l-.016-.238Zm0 0" style="stroke:none;fill-rule:nonzero;fill:#495561;fill-opacity:1"/><path d="M32.754 42.117c.195.067.195.067.312.133v.203l-.691-.07.254-.067v-.132l-.691.066c.265-.187.503-.16.816-.133" style="stroke:none;fill-rule:nonzero;fill:#616b75;fill-opacity:1"/><path d="m26.477 38.305.253.07-.062.066 1.816.067v.066q-.393.023-.793.04-.135.004-.27.015c-.128.004-.257.012-.386.016l-.238.011c-.192-.015-.192-.015-.313-.117l-.07-.098Zm0 0" style="stroke:none;fill-rule:nonzero;fill:#2d3e54;fill-opacity:1"/><path d="m16 39.844.117.039c.356.117.711.215 1.074.297v.133a3.6 3.6 0 0 1-1.191-.27Zm0 0" style="stroke:none;fill-rule:nonzero;fill:#293c4f;fill-opacity:1"/><path d="m26.477 37.438.152.105.164.094.125-.067.062.203-.125.2-.062-.2-.145.098c-.171.102-.171.102-.359.102.117-.387.117-.387.188-.535" style="stroke:none;fill-rule:nonzero;fill:#263d54;fill-opacity:1"/><path d="m23.719 42.852.187.132-.062.27a1.54 1.54 0 0 1-.754 0v.734h-.063v-.8l.274-.055c.152-.028.152-.028.293-.078Zm0 0" style="stroke:none;fill-rule:nonzero;fill:#606b77;fill-opacity:1"/><path d="M19.074 35.297h.125v1.07c-.187-.199-.187-.199-.199-.379l.012-.156-.125-.066.187-.067Zm0 0" style="stroke:none;fill-rule:nonzero;fill:#3a4a5e;fill-opacity:1"/><path d="M24.344 10.16c.086.25.039.367-.063.602l-.101.324q-.023.076-.051.16l-.035.117h-.125v-.465h.125l.039-.128.101-.329c.047-.144.047-.144.11-.28" style="stroke:none;fill-rule:nonzero;fill:#f3be46;fill-opacity:1"/><path d="M31.434 26.406h.753v.2h-.562l-.062.136h-.13Zm0 0" style="stroke:none;fill-rule:nonzero;fill:#cf9f29;fill-opacity:1"/><path d="M20.707 30.887h.063l.062.535c-.195.105-.277.144-.492.074l-.137-.074c.235-.203.235-.203.379-.203Zm0 0" style="stroke:none;fill-rule:nonzero;fill:#293549;fill-opacity:1"/><path d="M20.645 43.254q.192-.005.386-.004l.219-.004c.184.008.344.027.523.074l-.062.2c-.156-.008-.309-.02-.465-.028l-.133-.008c-.332-.023-.332-.023-.468-.097Zm0 0" style="stroke:none;fill-rule:nonzero;fill:#3f4d5b;fill-opacity:1"/><path d="M22.777 12.703h.125v.133h.313l-.063.133h-.062l-.063.469h.125l.063.335c-.32-.289-.367-.648-.438-1.07" style="stroke:none;fill-rule:nonzero;fill:#f6dc4d;fill-opacity:1"/><path d="M33.129 38.305c.184.191.355.379.504.601-.301.07-.301.07-.442.07Zm0 0" style="stroke:none;fill-rule:nonzero;fill:#e8f1f3;fill-opacity:1"/><path d="M18.195 35.5c.492 0 .492 0 .672.16.086.11.086.11.207.305l-.125.137-.164-.157a2.4 2.4 0 0 0-.59-.379Zm0 0" style="stroke:none;fill-rule:nonzero;fill:#2b3c4e;fill-opacity:1"/><path d="M24.281 13.238h.063v.399h.125l.066.27-.379.066a.5.5 0 0 1-.023-.391q.071-.174.148-.344" style="stroke:none;fill-rule:nonzero;fill:#fefad7;fill-opacity:1"/><path d="m20.328 43.32.125.133c-.023.145-.023.145-.062.27h.129l-.067.265h-.375Zm0 0" style="stroke:none;fill-rule:nonzero;fill:#586274;fill-opacity:1"/><path d="M26.164 38.977c.078.152.137.3.188.464l-.125.137c-.165-.027-.165-.027-.313-.07.11-.383.11-.383.25-.531" style="stroke:none;fill-rule:nonzero;fill:#132e4a;fill-opacity:1"/><path d="M23.148 14.895q.147.002.293.003l.153.004c.125 0 .25.004.375.004-.164.18-.242.203-.48.207a6 6 0 0 1-.259-.027l-.132-.012a9 9 0 0 1-.32-.031c.124-.137.124-.137.37-.148" style="stroke:none;fill-rule:nonzero;fill:#233e56;fill-opacity:1"/><path d="M23.531 43.188c.36.05.36.05.5.199-.062.199-.062.199-.25.336Zm0 0" style="stroke:none;fill-rule:nonzero;fill:#424b55;fill-opacity:1"/><path d="M18.133 39.777v.133l.187-.066v.133c-.175.043-.175.043-.375.066l-.187-.133c-.145-.031-.145-.031-.297-.043l-.152-.012-.118-.011v-.067c.11-.011.22-.027.332-.039l.184-.02c.16-.007.273.009.426.06" style="stroke:none;fill-rule:nonzero;fill:#3a5069;fill-opacity:1"/><path d="M33.379 38.508c.469.066.469.066.691.133l-.125.265-.125-.066-.187.066q-.13-.127-.254-.265Zm0 0" style="stroke:none;fill-rule:nonzero;fill:#213851;fill-opacity:1"/><path d="m21.27 37.238.125.133c-.024.176-.024.176-.063.332l.254.07-.152.024c-.172.027-.172.027-.29.176-.066-.227-.066-.434-.062-.668Zm0 0" style="stroke:none;fill-rule:nonzero;fill:#1d3653;fill-opacity:1"/><path d="m24.66 16.781.063.2h-.254v.132l-.188.067-.187-.133h.125l-.063-.2c.172-.09.317-.07.504-.066" style="stroke:none;fill-rule:nonzero;fill:#eea02a;fill-opacity:1"/><path d="M23.781 42.52h.313c.008.19.008.19 0 .398l-.125.137-.188-.07Zm0 0" style="stroke:none;fill-rule:nonzero;fill:#43505e;fill-opacity:1"/><path d="M24.156 13.102h.125c-.039.214-.11.37-.218.554l-.086.14-.07.11h-.063v-.469l.25-.066Zm0 0" style="stroke:none;fill-rule:nonzero;fill:#d2a81a;fill-opacity:1"/><path d="M31.309 30.484h.378c-.015.157-.039.313-.062.47l-.129.066v-.133l-.187-.067Zm0 0" style="stroke:none;fill-rule:nonzero;fill:#d99e15;fill-opacity:1"/><path d="m23.027 9.828.25.2-.062.269h-.25v-.203l-.25.066.062-.2.188.067Zm0 0" style="stroke:none;fill-rule:nonzero;fill:#e8ac26;fill-opacity:1"/><path d="m26.227 38.04.062.132.188-.067-.188.668-.125-.132-.125.066Zm0 0" style="stroke:none;fill-rule:nonzero;fill:#31435d;fill-opacity:1"/><path d="m30.242 28.145.25.066c-.363.293-.726.434-1.191.402.191-.136.265-.156.484-.175l.152-.016.118-.008v-.137h.187Zm0 0" style="stroke:none;fill-rule:nonzero;fill:#fcf3cf;fill-opacity:1"/><path d="M23.277 15.71c.125.134.125.134.141.333-.016.203-.016.203-.14.336l-.188-.133c-.024-.164-.024-.164 0-.336.094-.12.094-.12.187-.2" style="stroke:none;fill-rule:nonzero;fill:#163a5c;fill-opacity:1"/><path d="M20.895 15.578h.125q.034.23.062.465c-.062.07-.062.07-.219.078-.156-.008-.156-.008-.218-.078a5 5 0 0 1 0-.332l.25.066Zm0 0" style="stroke:none;fill-rule:nonzero;fill:#14233b;fill-opacity:1"/><path d="M24.219 13.305c.062.133.062.133.027.261l-.055.149-.054.144-.043.114h-.125v.199l-.25.066c.082-.242.183-.441.32-.656l.102-.16Zm0 0" style="stroke:none;fill-rule:nonzero;fill:#f9eb9c;fill-opacity:1"/><path d="M23.594 11.898c.18.02.18.02.375.067.086.14.086.14.125.27l-.18-.008c-.203-.016-.203-.016-.32.14Zm0 0" style="stroke:none;fill-rule:nonzero;fill:#f1c24a;fill-opacity:1"/><path d="M23.844 11.434h.562v.066h-.312v.266h-.5v-.2h.312Zm0 0" style="stroke:none;fill-rule:nonzero;fill:#fae978;fill-opacity:1"/><path d="m25.977 39.645.125.265h.125l.125.27h-.813c.25-.137.25-.137.39-.11l.11.043Zm0 0" style="stroke:none;fill-rule:nonzero;fill:#192b43;fill-opacity:1"/><path d="M21.207 39.645c.176.167.281.28.316.535h-.378c-.04-.157-.04-.157-.063-.336Zm0 0" style="stroke:none;fill-rule:nonzero;fill:#22384f;fill-opacity:1"/><path d="m26.918 36.836.125.133c-.004.199-.004.199-.063.402-.16.09-.16.09-.312.133-.016-.223-.016-.223 0-.469.125-.129.125-.129.25-.2" style="stroke:none;fill-rule:nonzero;fill:#112943;fill-opacity:1"/><path d="m30.492 28.145.13.066c-.231.328-.231.328-.442.402q-.147.005-.293.004l-.153-.004h-.117c.207-.117.418-.199.637-.281.129-.05.129-.05.238-.187" style="stroke:none;fill-rule:nonzero;fill:#d3ae53;fill-opacity:1"/><path d="M24.094 14.906h.187v.672h-.187Zm0 0" style="stroke:none;fill-rule:nonzero;fill:#505268;fill-opacity:1"/><path d="M24.469 10.695c.246.262.226.38.254.739h-.254Zm0 0" style="stroke:none;fill-rule:nonzero;fill:#e39622;fill-opacity:1"/><path d="M24.406 10.094c.188.187.344.347.442.601l-.313.067v-.399h-.129Zm0 0" style="stroke:none;fill-rule:nonzero;fill:#da9d41;fill-opacity:1"/><path d="M26.414 42.184h.063v1.336l-.25-.266.125-.133c.02-.16.03-.32.039-.476l.015-.262Zm0 0" style="stroke:none;fill-rule:nonzero;fill:#e5eef7;fill-opacity:1"/><path d="M28.234 35.164h.125c.192.441.192.441.192.668l-.192-.066a7 7 0 0 1-.062-.266l-.125-.066Zm0 0" style="stroke:none;fill-rule:nonzero;fill:#2b3e52;fill-opacity:1"/><path d="m20.832 30.484.25.067c-.035.191-.055.258-.187.402l.125.067-.25.132Zm0 0" style="stroke:none;fill-rule:nonzero;fill:#15233b;fill-opacity:1"/><path d="M21.71 11.434c.161.086.173.16.25.332l.106.175.082.16-.062.133c-.117-.043-.117-.043-.25-.132a1.55 1.55 0 0 1-.125-.668" style="stroke:none;fill-rule:nonzero;fill:#fbf1cc;fill-opacity:1"/><path d="M17.254 43.79h.254v.198h-1.195v-.066h.94Zm0 0" style="stroke:none;fill-rule:nonzero;fill:#444d59;fill-opacity:1"/><path d="M26.29 39.441c.07.223.054.38 0 .602l-.063-.133h-.125l-.063-.402Zm0 0" style="stroke:none;fill-rule:nonzero;fill:#3e526c;fill-opacity:1"/><path d="M17.129 36.637c.11.086.21.172.312.265v.133l.192.133-.063.137c-.152-.07-.152-.07-.316-.203-.082-.247-.082-.247-.125-.465m.062.465.063.136-.125-.07Zm0 0" style="stroke:none;fill-rule:nonzero;fill:#203855;fill-opacity:1"/><path d="M24.785 10.695c.164.168.293.309.375.535v.204h-.125l-.05-.157a.9.9 0 0 0-.262-.379Zm0 0" style="stroke:none;fill-rule:nonzero;fill:#bd8a2f;fill-opacity:1"/><path d="m18.383 39.977.129.066v.137a1.6 1.6 0 0 1-.754.133v-.133l.379-.098c.125-.035.125-.035.246-.105" style="stroke:none;fill-rule:nonzero;fill:#22374c;fill-opacity:1"/><path d="m28.613 38.508.125.133h.188c-.11.382-.11.382-.25.535-.133-.442-.133-.442-.063-.668" style="stroke:none;fill-rule:nonzero;fill:#283e55;fill-opacity:1"/><path d="M31.121 27.14h.125a2.4 2.4 0 0 1-.375.805h-.062v-.336h.125v-.132h.125Zm0 0" style="stroke:none;fill-rule:nonzero;fill:#fdf5d2;fill-opacity:1"/><path d="m23.09 13.973.25.132-.063.536.188.066h-.25c-.074-.258-.125-.46-.125-.734" style="stroke:none;fill-rule:nonzero;fill:#fbfcd6;fill-opacity:1"/><path d="m33.441 37.035.317.336-.125.2-.125-.2c-.16-.082-.16-.082-.317-.133Zm0 0" style="stroke:none;fill-rule:nonzero;fill:#253850;fill-opacity:1"/><path d="M23.719 15.844c0 .238-.051.289-.188.469l-.129.199h-.125c.078-.332.176-.477.442-.668" style="stroke:none;fill-rule:nonzero;fill:#d4e2e9;fill-opacity:1"/><path d="m23.594 13.773.125.067v.133l.125.066-.188.336-.191-.07-.063-.2.192-.066Zm0 0" style="stroke:none;fill-rule:nonzero;fill:#e4b738;fill-opacity:1"/><path d="M23.656 12.703h.063l.062.735-.125.066c-.07-.149-.074-.234-.07-.402l-.004-.141c.012-.125.012-.125.074-.258" style="stroke:none;fill-rule:nonzero;fill:#d29703;fill-opacity:1"/><path d="M22.902 11.566h.063c.02.313-.02.477-.188.735l-.062.133-.188-.067c.078-.242.102-.32.313-.469.047-.171.047-.171.062-.332" style="stroke:none;fill-rule:nonzero;fill:#fbd556;fill-opacity:1"/><path d="M22.21 11.363c.04.227.04.227.063.469l-.125.133c-.097-.117-.097-.117-.187-.266.012-.144.012-.144.062-.265.125-.07.125-.07.188-.07" style="stroke:none;fill-rule:nonzero;fill:#e8ac19;fill-opacity:1"/><path d="M31.938 43.586v.137h.125v.199l-.376-.067-.062-.199c.188-.07.188-.07.313-.07" style="stroke:none;fill-rule:nonzero;fill:#46515d;fill-opacity:1"/><path d="M16.25 42.184h.254v.468l-.129-.132-.125.265Zm0 0" style="stroke:none;fill-rule:nonzero;fill:#44525e;fill-opacity:1"/><path d="m19.262 39.441.125.204-.313.468-.187-.07Zm0 0" style="stroke:none;fill-rule:nonzero;fill:#e2e7ea;fill-opacity:1"/><path d="m25.977 38.707.125.2c-.028.152-.028.152-.086.316l-.055.164-.047.12c-.09-.152-.133-.226-.098-.41l.059-.14.055-.14Zm0 0" style="stroke:none;fill-rule:nonzero;fill:#32455c;fill-opacity:1"/><path d="M17.066 37.703h.442l-.13.07.063.2c-.187.066-.187.066-.324.004l-.113-.07Zm0 0" style="stroke:none;fill-rule:nonzero;fill:#283958;fill-opacity:1"/><path d="m26.73 16.715.063.133a.72.72 0 0 1-.453.035l-.238-.035v-.133c.418-.094.418-.094.628 0" style="stroke:none;fill-rule:nonzero;fill:#f9ba4b;fill-opacity:1"/><path d="M20.77 16.18h.25c.046.117.046.117.062.265-.121.153-.121.153-.25.27Zm0 0" style="stroke:none;fill-rule:nonzero;fill:#13243c;fill-opacity:1"/><path d="M25.098 14.906h.566v.137l-.566.066Zm-.25.203.25.067Zm0 0" style="stroke:none;fill-rule:nonzero;fill:#906d78;fill-opacity:1"/><path d="M22.84 13.238c.164.086.2.188.289.36l.086.16c.062.148.062.148.062.347-.226-.152-.293-.27-.359-.546l-.047-.184Zm0 0" style="stroke:none;fill-rule:nonzero;fill:#fbf1a2;fill-opacity:1"/><path d="m23.719 8.957.125.066c-.024.2-.024.2-.063.403l-.125.066-.125-.066c.035-.2.078-.293.188-.469" style="stroke:none;fill-rule:nonzero;fill:#e9b125;fill-opacity:1"/><path d="M23.781 8.355c.16.258.16.43.188.739-.16-.211-.27-.43-.375-.672Zm0 0" style="stroke:none;fill-rule:nonzero;fill:#fcf0c8;fill-opacity:1"/><path d="m32.816 37.906.313.332-.125.27-.063-.133-.187-.07.125-.067Zm0 0" style="stroke:none;fill-rule:nonzero;fill:#dfe5ed;fill-opacity:1"/><path d="m32.313 35.7.44.402-.25.132c-.19-.308-.19-.308-.19-.535" style="stroke:none;fill-rule:nonzero;fill:#283f53;fill-opacity:1"/><path d="m22.273 11.766.188.066-.125.469-.25-.266Zm0 0" style="stroke:none;fill-rule:nonzero;fill:#eab943;fill-opacity:1"/><path d="m23.531 9.426.188.066-.125.668h-.063Zm0 0" style="stroke:none;fill-rule:nonzero;fill:#f9bf41;fill-opacity:1"/><path d="m24.031 9.16.313.133.062.535a2 2 0 0 1-.375-.668" style="stroke:none;fill-rule:nonzero;fill:#fef8d6;fill-opacity:1"/><path d="m23.844 42.25.25.133v.137l-.375.066-.063-.133Zm0 0" style="stroke:none;fill-rule:nonzero;fill:#58626c;fill-opacity:1"/><path d="M34.887 40.313h.629c-.254.132-.254.132-.38.132v.133l-.25-.066Zm0 0" style="stroke:none;fill-rule:nonzero;fill:#e6eff6;fill-opacity:1"/><path d="M29.3 37.371c.188.133.188.133.235.274l.02.128h-.13l-.062.2-.187-.535Zm0 0" style="stroke:none;fill-rule:nonzero;fill:#e9f1f6;fill-opacity:1"/><path d="M27.043 35.832c.125.27.125.27.082.45-.082.152-.082.152-.27.218Zm0 0" style="stroke:none;fill-rule:nonzero;fill:#32475a;fill-opacity:1"/><path d="M31.309 26.875h.062a4 4 0 0 1-.023.29l-.012.16c-.027.152-.027.152-.152.35h-.125Zm0 0" style="stroke:none;fill-rule:nonzero;fill:#d1a84f;fill-opacity:1"/><path d="m24.344 13.238.254.067c-.02.129-.02.129-.063.265l-.191.067Zm0 0" style="stroke:none;fill-rule:nonzero;fill:#fdf8eb;fill-opacity:1"/><path d="m29.992 43.188.188.132-.035.125c-.043.145-.043.145.035.278l-.25-.137a5 5 0 0 1 0-.332Zm0 0" style="stroke:none;fill-rule:nonzero;fill:#3f4a57;fill-opacity:1"/><path d="m29.867 43.055.188.066-.125.399c-.125-.09-.125-.09-.25-.2v-.133h.187Zm0 0" style="stroke:none;fill-rule:nonzero;fill:#505967;fill-opacity:1"/><path d="m18.762 40.043-.063.203h-.187v.133l-.38-.066c.2-.141.388-.27.63-.27" style="stroke:none;fill-rule:nonzero;fill:#d9e3eb;fill-opacity:1"/><path d="m16.504 39.777.125.067v.27l-.567-.204.25-.066Zm0 0" style="stroke:none;fill-rule:nonzero;fill:#163355;fill-opacity:1"/><path d="M26.605 17.18h-.128l-.063.203-.312.066v-.203c.191-.121.289-.144.503-.066" style="stroke:none;fill-rule:nonzero;fill:#fef8d1;fill-opacity:1"/><path d="m22.273 12.3.254.134v.132l.188.07v.333c-.14-.18-.246-.309-.317-.535h-.125Zm0 0" style="stroke:none;fill-rule:nonzero;fill:#f2e47b;fill-opacity:1"/><path d="M23.656 8.559c.164.207.239.406.313.668l-.375-.336Zm0 0" style="stroke:none;fill-rule:nonzero;fill:#d8a63f;fill-opacity:1"/><path d="M21.836 43.656h.125l.062.332h-.312c.055-.258.055-.258.125-.332" style="stroke:none;fill-rule:nonzero;fill:#444c5d;fill-opacity:1"/><path d="M26.668 38.574h.312a9 9 0 0 1-.312.332h-.125Zm0 0" style="stroke:none;fill-rule:nonzero;fill:#dfeaf3;fill-opacity:1"/><path d="m33.004 37.906.25.133v.2h.125l-.063.202c-.156-.117-.156-.117-.312-.27Zm0 0" style="stroke:none;fill-rule:nonzero;fill:#1c334c;fill-opacity:1"/><path d="m27.547 36.102.187.265c-.09.188-.199.2-.379.27.118-.461.118-.461.192-.535" style="stroke:none;fill-rule:nonzero;fill:#c7d5df;fill-opacity:1"/><path d="M25.223 20.39h.187l-.125.669h-.062Zm0 0" style="stroke:none;fill-rule:nonzero;fill:#f4d12e;fill-opacity:1"/><path d="m22.398 10.16.063.203c-.09.18-.09.18-.188.332l-.125-.265Zm0 0" style="stroke:none;fill-rule:nonzero;fill:#fdf7d8;fill-opacity:1"/><path d="m29.176 42.719.312.336-.187.066-.125.133Zm0 0" style="stroke:none;fill-rule:nonzero;fill:#f3f8fb;fill-opacity:1"/><path d="m31.813 42.25.375.133-.25.203-.188-.203Zm0 0" style="stroke:none;fill-rule:nonzero;fill:#4d5966;fill-opacity:1"/><path d="M17.883 35.363c.105.102.105.102.187.203-.09.004-.183.004-.273.008l-.156.004c-.133-.012-.133-.012-.262-.144.176-.094.308-.086.504-.07" style="stroke:none;fill-rule:nonzero;fill:#394e64;fill-opacity:1"/><path d="M34.762 35.23h.687v.067l-.183.027-.192.04-.062.136h-.125Zm0 0" style="stroke:none;fill-rule:nonzero;fill:#343d4f;fill-opacity:1"/><path d="M24.406 10.695h.063v.668l-.25-.133.125-.199q.04-.165.062-.336" style="stroke:none;fill-rule:nonzero;fill:#e6a434;fill-opacity:1"/><path d="M22.21 10.695h.063v.403l-.312.132c.07-.199.14-.355.25-.535" style="stroke:none;fill-rule:nonzero;fill:#deb468;fill-opacity:1"/><path d="M22.902 9.426h.063v.601h-.125c-.067-.187-.067-.257-.004-.449Zm0 0" style="stroke:none;fill-rule:nonzero;fill:#daa93d;fill-opacity:1"/><path d="m31.75 43.32.188.2c-.133.144-.196.164-.375.203v-.27l.125.067Zm0 0" style="stroke:none;fill-rule:nonzero;fill:#57616e;fill-opacity:1"/><path d="M26.227 43.188v.199l-.063-.133-.25.133-.125-.2c.168-.09.262-.046.438 0" style="stroke:none;fill-rule:nonzero;fill:#585c68;fill-opacity:1"/><path d="M21.395 42.52c.19.25.19.25.19.398h-.128v.137l-.187.066v-.137h.125l-.063-.199c.027-.144.027-.144.063-.265" style="stroke:none;fill-rule:nonzero;fill:#5d6477;fill-opacity:1"/><path d="M19.137 42.184h.379v.199h-.38Zm0 0" style="stroke:none;fill-rule:nonzero;fill:#525d65;fill-opacity:1"/><path d="m25.602 39.71.187.403-.441.067Zm0 0" style="stroke:none;fill-rule:nonzero;fill:#334658;fill-opacity:1"/><path d="m16.504 39.176.125.066c.039.172.039.172.062.336-.199-.094-.25-.133-.378-.336Zm0 0" style="stroke:none;fill-rule:nonzero;fill:#dee6ec;fill-opacity:1"/><path d="m16.754 36.035.187.067v.265l-.312.067a1.8 1.8 0 0 1 .125-.399" style="stroke:none;fill-rule:nonzero;fill:#132841;fill-opacity:1"/><path d="M18.824 35.23h.125l-.062.133Zm-.125.133.188.07.062.2-.437-.067Zm0 0" style="stroke:none;fill-rule:nonzero;fill:#0e2840;fill-opacity:1"/><path d="M23.531 13.637h.063l.062.468h-.254c.055-.39.055-.39.13-.468" style="stroke:none;fill-rule:nonzero;fill:#f9be24;fill-opacity:1"/><path d="m22.21 11.23.25.067-.187.469h-.062Zm0 0" style="stroke:none;fill-rule:nonzero;fill:#ebaf30;fill-opacity:1"/><path d="M25.098 11.098h.187c.074.23.067.425.063.668h-.125l.007-.184a.87.87 0 0 0-.132-.484" style="stroke:none;fill-rule:nonzero;fill:#faeec1;fill-opacity:1"/><path d="M24.219 9.625c.164.16.277.328.379.535l-.063.137-.066-.203-.188-.067Zm0 0" style="stroke:none;fill-rule:nonzero;fill:#e7c475;fill-opacity:1"/><path d="m20.328 43.32.125.133c-.012.14-.012.14-.062.27l-.188.066c.055-.316.055-.316.125-.469" style="stroke:none;fill-rule:nonzero;fill:#5e697b;fill-opacity:1"/><path d="m18.32 38.04.125.401h-.125v-.136l-.25-.067v-.133c.125-.066.125-.066.25-.066" style="stroke:none;fill-rule:nonzero;fill:#0f2a46;fill-opacity:1"/><path d="m33.82 37.504.375.336-.062.2c-.227-.161-.242-.267-.313-.536" style="stroke:none;fill-rule:nonzero;fill:#152638;fill-opacity:1"/><path d="M20.203 35.23h.442l-.254.067v.27h-.125Zm0 0" style="stroke:none;fill-rule:nonzero;fill:#142a3f;fill-opacity:1"/><path d="m24.91 11.898.188.067-.313.469-.062-.2h.125Zm0 0" style="stroke:none;fill-rule:nonzero;fill:#e3ca55;fill-opacity:1"/></svg>